<svg width="24" height="25" viewBox="0 0 24 25" fill="none" xmlns="http://www.w3.org/2000/svg">
<g clip-path="url(#clip0_580_179)">
<path d="M21.2806 18.6241C20.9328 19.4276 20.5211 20.1673 20.0441 20.8473C19.3939 21.7744 18.8615 22.4161 18.4512 22.7725C17.8151 23.3574 17.1337 23.6569 16.4039 23.674C15.8801 23.674 15.2483 23.5249 14.5129 23.2225C13.7751 22.9215 13.097 22.7725 12.477 22.7725C11.8268 22.7725 11.1294 22.9215 10.3835 23.2225C9.63647 23.5249 9.03466 23.6825 8.57453 23.6981C7.87475 23.7279 7.17725 23.4198 6.48102 22.7725C6.03665 22.3849 5.48084 21.7204 4.81499 20.7792C4.1006 19.774 3.51326 18.6084 3.05313 17.2796C2.56035 15.8443 2.31332 14.4544 2.31332 13.1088C2.31332 11.5674 2.64639 10.238 3.31351 9.12393C3.83781 8.22909 4.53531 7.52321 5.40829 7.00502C6.28127 6.48683 7.22453 6.22276 8.24033 6.20586C8.79614 6.20586 9.52502 6.37779 10.4308 6.71568C11.334 7.05471 11.914 7.22664 12.1682 7.22664C12.3583 7.22664 13.0026 7.0256 14.0948 6.62482C15.1276 6.25314 15.9993 6.09924 16.7134 6.15987C18.6485 6.31603 20.1023 7.07884 21.0691 8.45312C19.3385 9.50172 18.4824 10.9704 18.4994 12.8545C18.5151 14.3221 19.0474 15.5433 20.0938 16.513C20.568 16.963 21.0975 17.3108 21.6867 17.5579C21.5589 17.9284 21.424 18.2833 21.2806 18.6241ZM16.8426 1.16022C16.8426 2.31048 16.4224 3.38448 15.5848 4.37856C14.5739 5.56032 13.3513 6.2432 12.0254 6.13545C12.0085 5.99745 11.9987 5.85222 11.9987 5.6996C11.9987 4.59535 12.4794 3.41358 13.3331 2.44733C13.7593 1.9581 14.3014 1.55131 14.9587 1.2268C15.6146 0.907141 16.235 0.730361 16.8185 0.700089C16.8355 0.853861 16.8426 1.00764 16.8426 1.1602V1.16022Z" fill="white"/>
</g>
<defs>
<clipPath id="clip0_580_179">
<rect width="24" height="24" fill="white" transform="translate(0 0.200073)"/>
</clipPath>
</defs>
</svg>
