<svg width="32" height="32" viewBox="0 0 32 32" fill="none" xmlns="http://www.w3.org/2000/svg">
<rect width="32" height="32" rx="16" fill="#6D5BE3"/>
<path d="M9.45447 14.4394C9.45447 13.6947 10.0582 13.091 10.8029 13.091V13.091C11.3137 13.091 11.7806 12.8024 12.009 12.3456L12.606 11.1516C12.686 10.9916 12.7259 10.9117 12.7713 10.8421C13.0079 10.4792 13.3939 10.2406 13.8243 10.1913C13.9068 10.1819 13.9962 10.1819 14.175 10.1819H17.8249C18.0037 10.1819 18.0931 10.1819 18.1756 10.1913C18.606 10.2406 18.992 10.4792 19.2286 10.8421C19.2739 10.9117 19.3139 10.9916 19.3939 11.1516L19.9909 12.3456C20.2193 12.8024 20.6862 13.091 21.1969 13.091V13.091C21.9417 13.091 22.5454 13.6947 22.5454 14.4394V18.078C22.5454 19.536 22.5454 20.265 22.211 20.7972C22.0366 21.0748 21.8019 21.3094 21.5244 21.4838C20.9921 21.8182 20.2631 21.8182 18.8051 21.8182H13.1947C11.7367 21.8182 11.0077 21.8182 10.4755 21.4838C10.198 21.3094 9.96328 21.0748 9.78889 20.7972C9.45447 20.265 9.45447 19.536 9.45447 18.078V14.4394Z" stroke="#F3F3F3" stroke-width="1.45455"/>
<circle cx="16" cy="16.7272" r="2.18182" stroke="#F3F3F3" stroke-width="1.45455"/>
</svg>
