<svg width="25" height="24" viewBox="0 0 25 24" fill="none" xmlns="http://www.w3.org/2000/svg">
<path d="M6.07727 15C5.81205 15 5.5577 14.8946 5.37016 14.7071C5.18263 14.5196 5.07727 14.2652 5.07727 14V10C5.07727 9.73478 5.18263 9.48043 5.37016 9.29289C5.5577 9.10536 5.81205 9 6.07727 9H12.0773V15H6.07727Z" fill="#14AE5C"/>
<path fill-rule="evenodd" clip-rule="evenodd" d="M18.0773 6H5.07727C4.28162 6 3.51856 6.31607 2.95595 6.87868C2.39334 7.44129 2.07727 8.20435 2.07727 9V15C2.07727 15.7956 2.39334 16.5587 2.95595 17.1213C3.51856 17.6839 4.28162 18 5.07727 18H18.0773C18.8729 18 19.636 17.6839 20.1986 17.1213C20.7612 16.5587 21.0773 15.7956 21.0773 15C21.3425 15 21.5968 14.8946 21.7844 14.7071C21.9719 14.5196 22.0773 14.2652 22.0773 14V10C22.0773 9.73478 21.9719 9.48043 21.7844 9.29289C21.5968 9.10536 21.3425 9 21.0773 9C21.0773 8.20435 20.7612 7.44129 20.1986 6.87868C19.636 6.31607 18.8729 6 18.0773 6ZM18.0773 8H5.07727C4.81205 8 4.5577 8.10536 4.37016 8.29289C4.18263 8.48043 4.07727 8.73478 4.07727 9V15C4.07727 15.2652 4.18263 15.5196 4.37016 15.7071C4.5577 15.8946 4.81205 16 5.07727 16H18.0773C18.3425 16 18.5968 15.8946 18.7844 15.7071C18.9719 15.5196 19.0773 15.2652 19.0773 15V9C19.0773 8.73478 18.9719 8.48043 18.7844 8.29289C18.5968 8.10536 18.3425 8 18.0773 8Z" fill="#14AE5C"/>
</svg>
