<svg width="24" height="25" viewBox="0 0 24 25" fill="none" xmlns="http://www.w3.org/2000/svg">
<rect width="24" height="24" transform="translate(0 0.200073)" fill="white"/>
<path fill-rule="evenodd" clip-rule="evenodd" d="M23.04 12.4614C23.04 11.646 22.9668 10.8619 22.8309 10.1092H12V14.5576H18.1891C17.9225 15.9951 17.1123 17.213 15.8943 18.0285V20.9139H19.6109C21.7855 18.9119 23.04 15.9637 23.04 12.4614Z" fill="#4285F4"/>
<path fill-rule="evenodd" clip-rule="evenodd" d="M11.9999 23.6999C15.1049 23.6999 17.7081 22.6701 19.6108 20.9138L15.8943 18.0283C14.8645 18.7183 13.5472 19.126 11.9999 19.126C9.00471 19.126 6.46948 17.1031 5.56516 14.3849H1.72311V17.3644C3.61539 21.1229 7.50448 23.6999 11.9999 23.6999Z" fill="#34A853"/>
<path fill-rule="evenodd" clip-rule="evenodd" d="M5.56523 14.3851C5.33523 13.6951 5.20455 12.9581 5.20455 12.2001C5.20455 11.4422 5.33523 10.7051 5.56523 10.0151V7.03558H1.72318C0.944318 8.58808 0.5 10.3444 0.5 12.2001C0.5 14.0558 0.944318 15.8122 1.72318 17.3647L5.56523 14.3851Z" fill="#FBBC05"/>
<path fill-rule="evenodd" clip-rule="evenodd" d="M11.9999 5.27394C13.6883 5.27394 15.2043 5.85416 16.3961 6.99371L19.6945 3.6953C17.7029 1.83962 15.0997 0.700073 11.9999 0.700073C7.50448 0.700073 3.61539 3.27712 1.72311 7.03553L5.56516 10.0151C6.46948 7.29689 9.00471 5.27394 11.9999 5.27394Z" fill="#EA4335"/>
</svg>
