<svg width="17" height="16" viewBox="0 0 17 16" fill="none" xmlns="http://www.w3.org/2000/svg">
<path d="M6.57133 3.63198C6.96999 2.46531 8.58199 2.42998 9.05466 3.52598L9.09466 3.63265L9.63266 5.20598C9.75596 5.5668 9.9552 5.89699 10.2169 6.17426C10.4787 6.45154 10.7969 6.66945 11.15 6.81331L11.2947 6.86731L12.868 7.40465C14.0347 7.80331 14.07 9.41531 12.9747 9.88798L12.868 9.92798L11.2947 10.466C10.9337 10.5892 10.6034 10.7884 10.326 11.0502C10.0486 11.3119 9.83059 11.6301 9.68666 11.9833L9.63266 12.1273L9.09533 13.7013C8.69666 14.868 7.08466 14.9033 6.61266 13.808L6.57133 13.7013L6.03399 12.128C5.91078 11.767 5.71157 11.4367 5.44982 11.1593C5.18807 10.8819 4.86986 10.6639 4.51666 10.52L4.37266 10.466L2.79933 9.92865C1.63199 9.52998 1.59666 7.91798 2.69266 7.44598L2.79933 7.40465L4.37266 6.86731C4.73348 6.74402 5.06367 6.54478 5.34094 6.28303C5.61822 6.02128 5.83613 5.70311 5.97999 5.34998L6.03399 5.20598L6.57133 3.63198ZM13.1667 1.33331C13.2914 1.33331 13.4136 1.3683 13.5194 1.43429C13.6253 1.50029 13.7105 1.59465 13.7653 1.70665L13.7973 1.78465L14.0307 2.46865L14.7153 2.70198C14.8403 2.74444 14.9499 2.82306 15.0301 2.92786C15.1104 3.03266 15.1578 3.15893 15.1662 3.29066C15.1746 3.4224 15.1437 3.55367 15.0775 3.66784C15.0112 3.78201 14.9126 3.87394 14.794 3.93198L14.7153 3.96398L14.0313 4.19731L13.798 4.88198C13.7555 5.00693 13.6768 5.11645 13.5719 5.19664C13.4671 5.27684 13.3408 5.32411 13.2091 5.33246C13.0774 5.34081 12.9461 5.30988 12.832 5.24357C12.7179 5.17726 12.626 5.07856 12.568 4.95998L12.536 4.88198L12.3027 4.19798L11.618 3.96465C11.493 3.92218 11.3834 3.84357 11.3032 3.73877C11.2229 3.63397 11.1756 3.5077 11.1671 3.37597C11.1587 3.24423 11.1896 3.11296 11.2558 2.99879C11.3221 2.88462 11.4208 2.79269 11.5393 2.73465L11.618 2.70265L12.302 2.46931L12.5353 1.78465C12.5803 1.65293 12.6653 1.53859 12.7786 1.45765C12.8918 1.37671 13.0275 1.33323 13.1667 1.33331Z" fill="#6D5BE3"/>
</svg>
