<svg width="16" height="16" viewBox="0 0 16 16" fill="none" xmlns="http://www.w3.org/2000/svg">
<path d="M7.99999 10C9.10456 10 9.99999 9.10459 9.99999 8.00002C9.99999 6.89545 9.10456 6.00002 7.99999 6.00002C6.89542 6.00002 5.99999 6.89545 5.99999 8.00002C5.99999 9.10459 6.89542 10 7.99999 10Z" stroke="#9C10A9" stroke-width="1.6" stroke-linecap="round" stroke-linejoin="round"/>
<path d="M12.9333 10C12.8446 10.2011 12.8181 10.4241 12.8573 10.6404C12.8965 10.8567 12.9996 11.0562 13.1533 11.2134L13.1933 11.2534C13.3173 11.3772 13.4156 11.5242 13.4827 11.6861C13.5498 11.848 13.5844 12.0215 13.5844 12.1967C13.5844 12.3719 13.5498 12.5454 13.4827 12.7073C13.4156 12.8691 13.3173 13.0162 13.1933 13.14C13.0695 13.264 12.9224 13.3623 12.7606 13.4294C12.5987 13.4965 12.4252 13.5311 12.25 13.5311C12.0748 13.5311 11.9013 13.4965 11.7394 13.4294C11.5775 13.3623 11.4305 13.264 11.3067 13.14L11.2667 13.1C11.1095 12.9463 10.91 12.8432 10.6937 12.804C10.4775 12.7648 10.2544 12.7913 10.0533 12.88C9.85614 12.9645 9.68798 13.1048 9.56953 13.2837C9.45108 13.4626 9.38751 13.6722 9.38666 13.8867V14C9.38666 14.3536 9.24618 14.6928 8.99613 14.9428C8.74608 15.1929 8.40694 15.3334 8.05332 15.3334C7.6997 15.3334 7.36056 15.1929 7.11051 14.9428C6.86047 14.6928 6.71999 14.3536 6.71999 14V13.94C6.71483 13.7194 6.6434 13.5053 6.515 13.3258C6.38659 13.1463 6.20715 13.0095 5.99999 12.9334C5.79891 12.8446 5.57586 12.8181 5.3596 12.8573C5.14333 12.8966 4.94378 12.9997 4.78666 13.1534L4.74666 13.1934C4.62283 13.3173 4.47577 13.4157 4.31391 13.4828C4.15205 13.5499 3.97854 13.5844 3.80332 13.5844C3.6281 13.5844 3.4546 13.5499 3.29274 13.4828C3.13087 13.4157 2.98382 13.3173 2.85999 13.1934C2.73602 13.0695 2.63768 12.9225 2.57058 12.7606C2.50348 12.5987 2.46894 12.4252 2.46894 12.25C2.46894 12.0748 2.50348 11.9013 2.57058 11.7394C2.63768 11.5776 2.73602 11.4305 2.85999 11.3067L2.89999 11.2667C3.05368 11.1096 3.15678 10.91 3.19599 10.6937C3.23521 10.4775 3.20873 10.2544 3.11999 10.0534C3.03548 9.85617 2.89516 9.68801 2.7163 9.56956C2.53744 9.45111 2.32785 9.38754 2.11332 9.38669H1.99999C1.64637 9.38669 1.30723 9.24621 1.05718 8.99616C0.807132 8.74611 0.666656 8.40698 0.666656 8.05335C0.666656 7.69973 0.807132 7.36059 1.05718 7.11054C1.30723 6.8605 1.64637 6.72002 1.99999 6.72002H2.05999C2.28065 6.71486 2.49466 6.64343 2.67419 6.51503C2.85372 6.38662 2.99047 6.20718 3.06666 6.00002C3.1554 5.79894 3.18187 5.57589 3.14266 5.35963C3.10345 5.14336 3.00035 4.94381 2.84666 4.78669L2.80666 4.74669C2.68269 4.62286 2.58434 4.4758 2.51724 4.31394C2.45014 4.15208 2.41561 3.97857 2.41561 3.80335C2.41561 3.62813 2.45014 3.45463 2.51724 3.29277C2.58434 3.1309 2.68269 2.98385 2.80666 2.86002C2.93049 2.73605 3.07754 2.63771 3.2394 2.57061C3.40127 2.50351 3.57477 2.46897 3.74999 2.46897C3.92521 2.46897 4.09871 2.50351 4.26058 2.57061C4.42244 2.63771 4.56949 2.73605 4.69332 2.86002L4.73332 2.90002C4.89044 3.05371 5.09 3.15681 5.30626 3.19602C5.52253 3.23524 5.74558 3.20876 5.94666 3.12002H5.99999C6.19717 3.03551 6.36533 2.89519 6.48378 2.71633C6.60223 2.53747 6.6658 2.32788 6.66666 2.11335V2.00002C6.66666 1.6464 6.80713 1.30726 7.05718 1.05721C7.30723 0.807163 7.64637 0.666687 7.99999 0.666687C8.35361 0.666687 8.69275 0.807163 8.9428 1.05721C9.19285 1.30726 9.33332 1.6464 9.33332 2.00002V2.06002C9.33418 2.27454 9.39774 2.48414 9.51619 2.663C9.63464 2.84186 9.80281 2.98218 9.99999 3.06669C10.2011 3.15543 10.4241 3.1819 10.6404 3.14269C10.8566 3.10348 11.0562 3.00038 11.2133 2.84669L11.2533 2.80669C11.3772 2.68272 11.5242 2.58437 11.6861 2.51727C11.8479 2.45017 12.0214 2.41564 12.1967 2.41564C12.3719 2.41564 12.5454 2.45017 12.7072 2.51727C12.8691 2.58437 13.0162 2.68272 13.14 2.80669C13.264 2.93052 13.3623 3.07757 13.4294 3.23943C13.4965 3.4013 13.531 3.5748 13.531 3.75002C13.531 3.92524 13.4965 4.09874 13.4294 4.26061C13.3623 4.42247 13.264 4.56952 13.14 4.69335L13.1 4.73335C12.9463 4.89047 12.8432 5.09003 12.804 5.30629C12.7648 5.52256 12.7912 5.74561 12.88 5.94669V6.00002C12.9645 6.1972 13.1048 6.36536 13.2837 6.48382C13.4625 6.60227 13.6721 6.66583 13.8867 6.66669H14C14.3536 6.66669 14.6927 6.80716 14.9428 7.05721C15.1928 7.30726 15.3333 7.6464 15.3333 8.00002C15.3333 8.35364 15.1928 8.69278 14.9428 8.94283C14.6927 9.19288 14.3536 9.33335 14 9.33335H13.94C13.7255 9.33421 13.5159 9.39777 13.337 9.51622C13.1582 9.63468 13.0178 9.80284 12.9333 10Z" stroke="#9C10A9" stroke-width="1.6" stroke-linecap="round" stroke-linejoin="round"/>
</svg>
