<svg width="25" height="25" viewBox="0 0 25 25" fill="none" xmlns="http://www.w3.org/2000/svg">
<path d="M16.35 8.3401C16.74 8.3401 17.12 8.3701 17.49 8.4201C16.81 5.4501 13.69 3.2001 9.93999 3.2001C5.68999 3.2001 2.23999 6.0801 2.23999 9.6301C2.23999 11.6801 3.38999 13.4901 5.17999 14.6701L4.16999 16.7001L6.92999 15.5101C7.51999 15.7201 8.13999 15.8901 8.79999 15.9801C8.70999 15.5901 8.65999 15.1901 8.65999 14.7701C8.64999 11.2301 12.1 8.3401 16.35 8.3401ZM12.5 6.0901C12.6261 6.0901 12.7509 6.11493 12.8674 6.16318C12.9838 6.21142 13.0897 6.28214 13.1788 6.37128C13.268 6.46043 13.3387 6.56626 13.3869 6.68273C13.4352 6.7992 13.46 6.92403 13.46 7.0501C13.46 7.17617 13.4352 7.30101 13.3869 7.41748C13.3387 7.53395 13.268 7.63978 13.1788 7.72893C13.0897 7.81807 12.9838 7.88878 12.8674 7.93703C12.7509 7.98527 12.6261 8.0101 12.5 8.0101C12.2454 8.0101 12.0012 7.90896 11.8212 7.72893C11.6411 7.54889 11.54 7.30471 11.54 7.0501C11.54 6.7955 11.6411 6.55132 11.8212 6.37128C12.0012 6.19125 12.2454 6.0901 12.5 6.0901ZM7.36999 8.0201C7.11538 8.0201 6.8712 7.91896 6.69117 7.73893C6.51113 7.55889 6.40999 7.31471 6.40999 7.0601C6.40999 6.8055 6.51113 6.56132 6.69117 6.38128C6.8712 6.20125 7.11538 6.1001 7.36999 6.1001C7.6246 6.1001 7.86878 6.20125 8.04881 6.38128C8.22885 6.56132 8.32999 6.8055 8.32999 7.0601C8.32999 7.31471 8.22885 7.55889 8.04881 7.73893C7.86878 7.91896 7.6246 8.0201 7.36999 8.0201Z" fill="white"/>
<path d="M22.76 14.7701C22.76 11.9301 19.89 9.6301 16.35 9.6301C12.81 9.6301 9.94 11.9301 9.94 14.7701C9.94 17.6101 12.81 19.9101 16.35 19.9101C16.93 19.9101 17.49 19.8301 18.02 19.7101L21.48 21.2001L20.28 18.8001C21.78 17.8601 22.76 16.4201 22.76 14.7701ZM14.42 14.4501C14.2301 14.4501 14.0445 14.3938 13.8867 14.2883C13.7288 14.1828 13.6057 14.0329 13.5331 13.8575C13.4604 13.6821 13.4414 13.489 13.4784 13.3028C13.5155 13.1166 13.6069 12.9455 13.7412 12.8113C13.8754 12.677 14.0465 12.5856 14.2327 12.5485C14.4189 12.5115 14.612 12.5305 14.7874 12.6032C14.9628 12.6758 15.1127 12.7989 15.2182 12.9567C15.3237 13.1146 15.38 13.3002 15.38 13.4901C15.39 14.0201 14.95 14.4501 14.42 14.4501ZM18.27 14.4501C18.0154 14.4501 17.7712 14.349 17.5912 14.1689C17.4111 13.9889 17.31 13.7447 17.31 13.4901C17.31 13.2355 17.4111 12.9913 17.5912 12.8113C17.7712 12.6312 18.0154 12.5301 18.27 12.5301C18.5246 12.5301 18.7688 12.6312 18.9488 12.8113C19.1289 12.9913 19.23 13.2355 19.23 13.4901C19.23 13.7447 19.1289 13.9889 18.9488 14.1689C18.7688 14.349 18.5246 14.4501 18.27 14.4501Z" fill="white"/>
</svg>
